<mxfile host="Electron" modified="2024-06-01T08:55:53.479Z" agent="Mozilla/5.0 (Windows NT 10.0; Win64; x64) AppleWebKit/537.36 (KHTML, like Gecko) draw.io/21.2.8 Chrome/112.0.5615.165 Electron/24.2.0 Safari/537.36" etag="LEJpGe_U9m4H2LxPy_ca" version="21.2.8" type="device">
  <diagram name="第 1 页" id="4vGoqL806USBXNcvkwfP">
    <mxGraphModel dx="1221" dy="823" grid="1" gridSize="10" guides="1" tooltips="1" connect="1" arrows="1" fold="1" page="1" pageScale="1" pageWidth="1169" pageHeight="827" background="none" math="0" shadow="0">
      <root>
        <mxCell id="0" />
        <mxCell id="1" parent="0" />
        <mxCell id="7SaddYAD59hQMCzfDjoO-1" value="" style="endArrow=none;html=1;rounded=0;" parent="1" edge="1">
          <mxGeometry width="50" height="50" relative="1" as="geometry">
            <mxPoint x="280" y="820" as="sourcePoint" />
            <mxPoint x="280" as="targetPoint" />
          </mxGeometry>
        </mxCell>
        <mxCell id="7SaddYAD59hQMCzfDjoO-2" value="" style="endArrow=none;html=1;rounded=0;dashed=1;" parent="1" edge="1">
          <mxGeometry width="50" height="50" relative="1" as="geometry">
            <mxPoint y="110" as="sourcePoint" />
            <mxPoint x="280" y="110" as="targetPoint" />
          </mxGeometry>
        </mxCell>
        <mxCell id="7SaddYAD59hQMCzfDjoO-3" value="&lt;b style=&quot;&quot;&gt;&lt;font style=&quot;font-size: 19px;&quot;&gt;USTC 银行&lt;/font&gt;&lt;/b&gt;" style="text;html=1;strokeColor=none;fillColor=none;align=center;verticalAlign=middle;whiteSpace=wrap;rounded=0;" parent="1" vertex="1">
          <mxGeometry x="94" y="28" width="124" height="36" as="geometry" />
        </mxCell>
        <mxCell id="7SaddYAD59hQMCzfDjoO-4" value="图标" style="ellipse;whiteSpace=wrap;html=1;aspect=fixed;rounded=0;" parent="1" vertex="1">
          <mxGeometry x="35" y="21" width="48" height="48" as="geometry" />
        </mxCell>
        <mxCell id="7SaddYAD59hQMCzfDjoO-6" value="" style="endArrow=none;html=1;rounded=0;dashed=1;" parent="1" edge="1">
          <mxGeometry width="50" height="50" relative="1" as="geometry">
            <mxPoint y="200" as="sourcePoint" />
            <mxPoint x="280" y="200" as="targetPoint" />
          </mxGeometry>
        </mxCell>
        <mxCell id="7SaddYAD59hQMCzfDjoO-7" value="" style="endArrow=none;html=1;rounded=0;dashed=1;" parent="1" edge="1">
          <mxGeometry width="50" height="50" relative="1" as="geometry">
            <mxPoint y="290" as="sourcePoint" />
            <mxPoint x="280" y="290" as="targetPoint" />
          </mxGeometry>
        </mxCell>
        <mxCell id="7SaddYAD59hQMCzfDjoO-9" value="" style="endArrow=none;html=1;rounded=0;dashed=1;" parent="1" edge="1">
          <mxGeometry width="50" height="50" relative="1" as="geometry">
            <mxPoint y="380" as="sourcePoint" />
            <mxPoint x="280" y="380" as="targetPoint" />
          </mxGeometry>
        </mxCell>
        <mxCell id="7SaddYAD59hQMCzfDjoO-10" value="" style="endArrow=none;html=1;rounded=0;dashed=1;" parent="1" edge="1">
          <mxGeometry width="50" height="50" relative="1" as="geometry">
            <mxPoint y="470" as="sourcePoint" />
            <mxPoint x="280" y="470" as="targetPoint" />
          </mxGeometry>
        </mxCell>
        <mxCell id="7SaddYAD59hQMCzfDjoO-11" value="" style="endArrow=none;html=1;rounded=0;dashed=1;" parent="1" edge="1">
          <mxGeometry width="50" height="50" relative="1" as="geometry">
            <mxPoint y="560" as="sourcePoint" />
            <mxPoint x="280" y="560" as="targetPoint" />
          </mxGeometry>
        </mxCell>
        <mxCell id="7SaddYAD59hQMCzfDjoO-12" value="&lt;b&gt;&lt;font style=&quot;font-size: 15px;&quot;&gt;仪表盘&lt;/font&gt;&lt;/b&gt;" style="rounded=1;whiteSpace=wrap;html=1;fillColor=#1ba1e2;fontColor=#ffffff;strokeColor=#006EAF;" parent="1" vertex="1">
          <mxGeometry x="10" y="120" width="260" height="70" as="geometry" />
        </mxCell>
        <mxCell id="7SaddYAD59hQMCzfDjoO-13" value="&lt;b&gt;&lt;font style=&quot;font-size: 15px;&quot;&gt;个人资料&lt;/font&gt;&lt;/b&gt;" style="rounded=1;whiteSpace=wrap;html=1;" parent="1" vertex="1">
          <mxGeometry x="10" y="210" width="260" height="70" as="geometry" />
        </mxCell>
        <mxCell id="7SaddYAD59hQMCzfDjoO-14" value="&lt;b&gt;&lt;font style=&quot;font-size: 15px;&quot;&gt;储蓄账户&lt;/font&gt;&lt;/b&gt;" style="rounded=1;whiteSpace=wrap;html=1;" parent="1" vertex="1">
          <mxGeometry x="10" y="300" width="260" height="70" as="geometry" />
        </mxCell>
        <mxCell id="7SaddYAD59hQMCzfDjoO-15" value="&lt;b&gt;&lt;font style=&quot;font-size: 15px;&quot;&gt;信用卡账户&lt;/font&gt;&lt;/b&gt;" style="rounded=1;whiteSpace=wrap;html=1;" parent="1" vertex="1">
          <mxGeometry x="10" y="390" width="260" height="70" as="geometry" />
        </mxCell>
        <mxCell id="7SaddYAD59hQMCzfDjoO-16" value="&lt;b&gt;&lt;font style=&quot;font-size: 15px;&quot;&gt;贷款账户&lt;/font&gt;&lt;/b&gt;" style="rounded=1;whiteSpace=wrap;html=1;" parent="1" vertex="1">
          <mxGeometry x="10" y="480" width="260" height="70" as="geometry" />
        </mxCell>
        <mxCell id="7SaddYAD59hQMCzfDjoO-17" value="&lt;b&gt;&lt;font style=&quot;font-size: 15px;&quot;&gt;登出&lt;/font&gt;&lt;/b&gt;" style="rounded=1;whiteSpace=wrap;html=1;fillColor=#E55235;strokeColor=#B20000;fontColor=#ffffff;" parent="1" vertex="1">
          <mxGeometry x="10" y="690" width="260" height="60" as="geometry" />
        </mxCell>
        <mxCell id="7SaddYAD59hQMCzfDjoO-18" value="&lt;b&gt;左边这一部分背景色为灰色&lt;/b&gt;" style="text;html=1;align=center;verticalAlign=middle;resizable=0;points=[];autosize=1;strokeColor=none;fillColor=none;" parent="1" vertex="1">
          <mxGeometry x="45" y="618" width="170" height="30" as="geometry" />
        </mxCell>
        <mxCell id="7SaddYAD59hQMCzfDjoO-19" value="&lt;b&gt;&lt;font style=&quot;font-size: 18px;&quot;&gt;你好，Username！&lt;/font&gt;&lt;/b&gt;" style="text;html=1;strokeColor=none;fillColor=none;align=center;verticalAlign=middle;whiteSpace=wrap;rounded=0;" parent="1" vertex="1">
          <mxGeometry x="310" y="28" width="170" height="30" as="geometry" />
        </mxCell>
        <mxCell id="7SaddYAD59hQMCzfDjoO-20" value="用户头像" style="ellipse;whiteSpace=wrap;html=1;aspect=fixed;" parent="1" vertex="1">
          <mxGeometry x="1080" y="18" width="54" height="54" as="geometry" />
        </mxCell>
        <mxCell id="7SaddYAD59hQMCzfDjoO-21" value="&lt;b&gt;右边这一部分背景色为白色&lt;/b&gt;" style="text;html=1;align=center;verticalAlign=middle;resizable=0;points=[];autosize=1;strokeColor=none;fillColor=none;" parent="1" vertex="1">
          <mxGeometry x="630" y="730" width="170" height="30" as="geometry" />
        </mxCell>
        <mxCell id="7SaddYAD59hQMCzfDjoO-22" value="&lt;b&gt;&lt;font style=&quot;font-size: 17px;&quot;&gt;储蓄账户&lt;/font&gt;&lt;/b&gt;" style="text;html=1;align=center;verticalAlign=middle;resizable=0;points=[];autosize=1;strokeColor=none;fillColor=none;" parent="1" vertex="1">
          <mxGeometry x="310" y="128" width="90" height="30" as="geometry" />
        </mxCell>
        <mxCell id="7SaddYAD59hQMCzfDjoO-25" value="" style="rounded=0;whiteSpace=wrap;html=1;glass=0;" parent="1" vertex="1">
          <mxGeometry x="320" y="190" width="800" height="110" as="geometry" />
        </mxCell>
        <mxCell id="7SaddYAD59hQMCzfDjoO-27" value="" style="endArrow=none;html=1;entryX=0.999;entryY=0.364;entryDx=0;entryDy=0;entryPerimeter=0;" parent="1" target="7SaddYAD59hQMCzfDjoO-25" edge="1">
          <mxGeometry width="50" height="50" relative="1" as="geometry">
            <mxPoint x="320" y="230" as="sourcePoint" />
            <mxPoint x="370" y="180" as="targetPoint" />
          </mxGeometry>
        </mxCell>
        <mxCell id="7SaddYAD59hQMCzfDjoO-28" value="" style="endArrow=none;html=1;entryX=1;entryY=0.75;entryDx=0;entryDy=0;" parent="1" target="7SaddYAD59hQMCzfDjoO-25" edge="1">
          <mxGeometry width="50" height="50" relative="1" as="geometry">
            <mxPoint x="320" y="270" as="sourcePoint" />
            <mxPoint x="370" y="220" as="targetPoint" />
          </mxGeometry>
        </mxCell>
        <mxCell id="7SaddYAD59hQMCzfDjoO-29" value="" style="endArrow=none;html=1;exitX=0.315;exitY=1.018;exitDx=0;exitDy=0;exitPerimeter=0;" parent="1" source="7SaddYAD59hQMCzfDjoO-25" edge="1">
          <mxGeometry width="50" height="50" relative="1" as="geometry">
            <mxPoint x="520" y="240" as="sourcePoint" />
            <mxPoint x="570" y="190" as="targetPoint" />
          </mxGeometry>
        </mxCell>
        <mxCell id="7SaddYAD59hQMCzfDjoO-30" value="账户号" style="text;html=1;strokeColor=none;fillColor=none;align=center;verticalAlign=middle;whiteSpace=wrap;rounded=0;" parent="1" vertex="1">
          <mxGeometry x="410" y="190" width="60" height="30" as="geometry" />
        </mxCell>
        <mxCell id="7SaddYAD59hQMCzfDjoO-31" value="" style="endArrow=none;html=1;exitX=0.665;exitY=1.036;exitDx=0;exitDy=0;exitPerimeter=0;" parent="1" source="7SaddYAD59hQMCzfDjoO-25" edge="1">
          <mxGeometry width="50" height="50" relative="1" as="geometry">
            <mxPoint x="800" y="240" as="sourcePoint" />
            <mxPoint x="850" y="190" as="targetPoint" />
          </mxGeometry>
        </mxCell>
        <mxCell id="7SaddYAD59hQMCzfDjoO-32" value="余额" style="text;html=1;strokeColor=none;fillColor=none;align=center;verticalAlign=middle;whiteSpace=wrap;rounded=0;" parent="1" vertex="1">
          <mxGeometry x="690" y="190" width="60" height="30" as="geometry" />
        </mxCell>
        <mxCell id="7SaddYAD59hQMCzfDjoO-33" value="明细" style="text;html=1;strokeColor=none;fillColor=none;align=center;verticalAlign=middle;whiteSpace=wrap;rounded=0;" parent="1" vertex="1">
          <mxGeometry x="960" y="190" width="60" height="30" as="geometry" />
        </mxCell>
        <mxCell id="7SaddYAD59hQMCzfDjoO-34" value="&lt;b&gt;&lt;font style=&quot;font-size: 17px;&quot;&gt;信用卡账户&lt;/font&gt;&lt;/b&gt;" style="text;html=1;strokeColor=none;fillColor=none;align=center;verticalAlign=middle;whiteSpace=wrap;rounded=0;" parent="1" vertex="1">
          <mxGeometry x="310" y="340" width="100" height="30" as="geometry" />
        </mxCell>
        <mxCell id="7SaddYAD59hQMCzfDjoO-35" value="" style="rounded=0;whiteSpace=wrap;html=1;glass=0;" parent="1" vertex="1">
          <mxGeometry x="320" y="390" width="800" height="110" as="geometry" />
        </mxCell>
        <mxCell id="7SaddYAD59hQMCzfDjoO-36" value="" style="endArrow=none;html=1;entryX=0.999;entryY=0.364;entryDx=0;entryDy=0;entryPerimeter=0;" parent="1" target="7SaddYAD59hQMCzfDjoO-35" edge="1">
          <mxGeometry width="50" height="50" relative="1" as="geometry">
            <mxPoint x="320" y="430" as="sourcePoint" />
            <mxPoint x="370" y="380" as="targetPoint" />
          </mxGeometry>
        </mxCell>
        <mxCell id="7SaddYAD59hQMCzfDjoO-37" value="" style="endArrow=none;html=1;entryX=1;entryY=0.75;entryDx=0;entryDy=0;" parent="1" target="7SaddYAD59hQMCzfDjoO-35" edge="1">
          <mxGeometry width="50" height="50" relative="1" as="geometry">
            <mxPoint x="320" y="470" as="sourcePoint" />
            <mxPoint x="370" y="420" as="targetPoint" />
            <Array as="points">
              <mxPoint x="650" y="470" />
            </Array>
          </mxGeometry>
        </mxCell>
        <mxCell id="7SaddYAD59hQMCzfDjoO-38" value="" style="endArrow=none;html=1;exitX=0.315;exitY=1.018;exitDx=0;exitDy=0;exitPerimeter=0;" parent="1" source="7SaddYAD59hQMCzfDjoO-35" edge="1">
          <mxGeometry width="50" height="50" relative="1" as="geometry">
            <mxPoint x="520" y="440" as="sourcePoint" />
            <mxPoint x="570" y="390" as="targetPoint" />
          </mxGeometry>
        </mxCell>
        <mxCell id="7SaddYAD59hQMCzfDjoO-39" value="账户号" style="text;html=1;strokeColor=none;fillColor=none;align=center;verticalAlign=middle;whiteSpace=wrap;rounded=0;" parent="1" vertex="1">
          <mxGeometry x="410" y="390" width="60" height="30" as="geometry" />
        </mxCell>
        <mxCell id="7SaddYAD59hQMCzfDjoO-40" value="" style="endArrow=none;html=1;exitX=0.665;exitY=1.036;exitDx=0;exitDy=0;exitPerimeter=0;" parent="1" source="7SaddYAD59hQMCzfDjoO-35" edge="1">
          <mxGeometry width="50" height="50" relative="1" as="geometry">
            <mxPoint x="800" y="440" as="sourcePoint" />
            <mxPoint x="850" y="390" as="targetPoint" />
          </mxGeometry>
        </mxCell>
        <mxCell id="7SaddYAD59hQMCzfDjoO-41" value="余额" style="text;html=1;strokeColor=none;fillColor=none;align=center;verticalAlign=middle;whiteSpace=wrap;rounded=0;" parent="1" vertex="1">
          <mxGeometry x="690" y="390" width="60" height="30" as="geometry" />
        </mxCell>
        <mxCell id="7SaddYAD59hQMCzfDjoO-42" value="明细" style="text;html=1;strokeColor=none;fillColor=none;align=center;verticalAlign=middle;whiteSpace=wrap;rounded=0;" parent="1" vertex="1">
          <mxGeometry x="960" y="390" width="60" height="30" as="geometry" />
        </mxCell>
        <mxCell id="7SaddYAD59hQMCzfDjoO-43" value="" style="rounded=0;whiteSpace=wrap;html=1;glass=0;" parent="1" vertex="1">
          <mxGeometry x="320" y="580" width="800" height="110" as="geometry" />
        </mxCell>
        <mxCell id="7SaddYAD59hQMCzfDjoO-44" value="" style="endArrow=none;html=1;entryX=0.999;entryY=0.364;entryDx=0;entryDy=0;entryPerimeter=0;" parent="1" target="7SaddYAD59hQMCzfDjoO-43" edge="1">
          <mxGeometry width="50" height="50" relative="1" as="geometry">
            <mxPoint x="320" y="620" as="sourcePoint" />
            <mxPoint x="370" y="570" as="targetPoint" />
          </mxGeometry>
        </mxCell>
        <mxCell id="7SaddYAD59hQMCzfDjoO-45" value="" style="endArrow=none;html=1;entryX=1;entryY=0.75;entryDx=0;entryDy=0;" parent="1" target="7SaddYAD59hQMCzfDjoO-43" edge="1">
          <mxGeometry width="50" height="50" relative="1" as="geometry">
            <mxPoint x="320" y="660" as="sourcePoint" />
            <mxPoint x="370" y="610" as="targetPoint" />
          </mxGeometry>
        </mxCell>
        <mxCell id="7SaddYAD59hQMCzfDjoO-46" value="" style="endArrow=none;html=1;exitX=0.315;exitY=1.018;exitDx=0;exitDy=0;exitPerimeter=0;" parent="1" source="7SaddYAD59hQMCzfDjoO-43" edge="1">
          <mxGeometry width="50" height="50" relative="1" as="geometry">
            <mxPoint x="520" y="630" as="sourcePoint" />
            <mxPoint x="570" y="580" as="targetPoint" />
          </mxGeometry>
        </mxCell>
        <mxCell id="7SaddYAD59hQMCzfDjoO-47" value="账户号" style="text;html=1;strokeColor=none;fillColor=none;align=center;verticalAlign=middle;whiteSpace=wrap;rounded=0;" parent="1" vertex="1">
          <mxGeometry x="410" y="580" width="60" height="30" as="geometry" />
        </mxCell>
        <mxCell id="7SaddYAD59hQMCzfDjoO-48" value="" style="endArrow=none;html=1;exitX=0.665;exitY=1.036;exitDx=0;exitDy=0;exitPerimeter=0;" parent="1" source="7SaddYAD59hQMCzfDjoO-43" edge="1">
          <mxGeometry width="50" height="50" relative="1" as="geometry">
            <mxPoint x="800" y="630" as="sourcePoint" />
            <mxPoint x="850" y="580" as="targetPoint" />
          </mxGeometry>
        </mxCell>
        <mxCell id="7SaddYAD59hQMCzfDjoO-49" value="余额" style="text;html=1;strokeColor=none;fillColor=none;align=center;verticalAlign=middle;whiteSpace=wrap;rounded=0;" parent="1" vertex="1">
          <mxGeometry x="690" y="580" width="60" height="30" as="geometry" />
        </mxCell>
        <mxCell id="7SaddYAD59hQMCzfDjoO-50" value="明细" style="text;html=1;strokeColor=none;fillColor=none;align=center;verticalAlign=middle;whiteSpace=wrap;rounded=0;" parent="1" vertex="1">
          <mxGeometry x="960" y="580" width="60" height="30" as="geometry" />
        </mxCell>
        <mxCell id="7SaddYAD59hQMCzfDjoO-51" value="&lt;b&gt;&lt;font style=&quot;font-size: 17px;&quot;&gt;贷款账户&lt;/font&gt;&lt;/b&gt;" style="text;html=1;align=center;verticalAlign=middle;resizable=0;points=[];autosize=1;strokeColor=none;fillColor=none;" parent="1" vertex="1">
          <mxGeometry x="310" y="538" width="90" height="30" as="geometry" />
        </mxCell>
      </root>
    </mxGraphModel>
  </diagram>
</mxfile>
